<svg xmlns="http://www.w3.org/2000/svg" width="1120" height="720" viewBox="0 0 1120 720">
<rect width="100%" height="100%" fill="#f8fafc"/>
<text x="110" y="42" font-size="28" font-family="Arial, sans-serif" font-weight="700" fill="#0f172a">Areal Displacement vs Target Vertex Count</text>
<text x="110" y="68" font-size="14" font-family="Arial, sans-serif" fill="#475569">Representative simplification sweeps on four datasets (linear scale).</text>
<rect x="110" y="90" width="970" height="540" fill="#ffffff" stroke="#cbd5e1"/>
<line x1="339.74" y1="90" x2="339.74" y2="630" stroke="#e2e8f0"/>
<text x="339.74" y="656" text-anchor="middle" font-size="13" font-family="Arial, sans-serif" fill="#334155">20</text>
<line x1="571.79" y1="90" x2="571.79" y2="630" stroke="#e2e8f0"/>
<text x="571.79" y="656" text-anchor="middle" font-size="13" font-family="Arial, sans-serif" fill="#334155">40</text>
<line x1="803.85" y1="90" x2="803.85" y2="630" stroke="#e2e8f0"/>
<text x="803.85" y="656" text-anchor="middle" font-size="13" font-family="Arial, sans-serif" fill="#334155">60</text>
<line x1="1035.91" y1="90" x2="1035.91" y2="630" stroke="#e2e8f0"/>
<text x="1035.91" y="656" text-anchor="middle" font-size="13" font-family="Arial, sans-serif" fill="#334155">80</text>
<line x1="110" y1="630.00" x2="1080" y2="630.00" stroke="#e2e8f0"/>
<text x="96" y="634.00" text-anchor="end" font-size="13" font-family="Arial, sans-serif" fill="#334155">0</text>
<line x1="110" y1="441.16" x2="1080" y2="441.16" stroke="#e2e8f0"/>
<text x="96" y="445.16" text-anchor="end" font-size="13" font-family="Arial, sans-serif" fill="#334155">50k</text>
<line x1="110" y1="252.32" x2="1080" y2="252.32" stroke="#e2e8f0"/>
<text x="96" y="256.32" text-anchor="end" font-size="13" font-family="Arial, sans-serif" fill="#334155">100k</text>
<text x="595.00" y="696" text-anchor="middle" font-size="16" font-family="Arial, sans-serif" fill="#0f172a">Target vertex count</text>
<text x="26" y="360.00" transform="rotate(-90 26,360.00)" text-anchor="middle" font-size="16" font-family="Arial, sans-serif" fill="#0f172a">Total areal displacement</text>
<rect x="850" y="110" width="210" height="130" fill="#ffffff" stroke="#cbd5e1" rx="8"/>
<path d="M 154.09 629.99 L 177.30 629.99 L 223.71 630.00 L 270.12 630.00 L 316.53 630.00 L 351.34 630.00" fill="none" stroke="#0f766e" stroke-width="2.5"/>
<circle cx="154.09" cy="629.99" r="4.5" fill="#0f766e" stroke="#ffffff" stroke-width="1.5"/>
<circle cx="177.30" cy="629.99" r="4.5" fill="#0f766e" stroke="#ffffff" stroke-width="1.5"/>
<circle cx="223.71" cy="630.00" r="4.5" fill="#0f766e" stroke="#ffffff" stroke-width="1.5"/>
<circle cx="270.12" cy="630.00" r="4.5" fill="#0f766e" stroke="#ffffff" stroke-width="1.5"/>
<circle cx="316.53" cy="630.00" r="4.5" fill="#0f766e" stroke="#ffffff" stroke-width="1.5"/>
<circle cx="351.34" cy="630.00" r="4.5" fill="#0f766e" stroke="#ffffff" stroke-width="1.5"/>
<line x1="864" y1="134" x2="888" y2="134" stroke="#0f766e" stroke-width="2.5"/>
<circle cx="876" cy="134" r="4.5" fill="#0f766e" stroke="#ffffff" stroke-width="1.5"/>
<text x="898" y="139" font-size="13" font-family="Arial, sans-serif" fill="#0f172a">comb_exterior</text>
<path d="M 316.53 414.43 L 339.74 465.54 L 386.15 549.51 L 432.56 595.47 L 478.97 620.00 L 513.78 627.90" fill="none" stroke="#dc2626" stroke-width="2.5"/>
<circle cx="316.53" cy="414.43" r="4.5" fill="#dc2626" stroke="#ffffff" stroke-width="1.5"/>
<circle cx="339.74" cy="465.54" r="4.5" fill="#dc2626" stroke="#ffffff" stroke-width="1.5"/>
<circle cx="386.15" cy="549.51" r="4.5" fill="#dc2626" stroke="#ffffff" stroke-width="1.5"/>
<circle cx="432.56" cy="595.47" r="4.5" fill="#dc2626" stroke="#ffffff" stroke-width="1.5"/>
<circle cx="478.97" cy="620.00" r="4.5" fill="#dc2626" stroke="#ffffff" stroke-width="1.5"/>
<circle cx="513.78" cy="627.90" r="4.5" fill="#dc2626" stroke="#ffffff" stroke-width="1.5"/>
<line x1="864" y1="162" x2="888" y2="162" stroke="#dc2626" stroke-width="2.5"/>
<circle cx="876" cy="162" r="4.5" fill="#dc2626" stroke="#ffffff" stroke-width="1.5"/>
<text x="898" y="167" font-size="13" font-family="Arial, sans-serif" fill="#0f172a">blob_with_two_holes</text>
<path d="M 362.94 268.06 L 409.35 385.50 L 455.77 488.51 L 502.18 551.98 L 548.59 599.43 L 595.00 627.42" fill="none" stroke="#2563eb" stroke-width="2.5"/>
<circle cx="362.94" cy="268.06" r="4.5" fill="#2563eb" stroke="#ffffff" stroke-width="1.5"/>
<circle cx="409.35" cy="385.50" r="4.5" fill="#2563eb" stroke="#ffffff" stroke-width="1.5"/>
<circle cx="455.77" cy="488.51" r="4.5" fill="#2563eb" stroke="#ffffff" stroke-width="1.5"/>
<circle cx="502.18" cy="551.98" r="4.5" fill="#2563eb" stroke="#ffffff" stroke-width="1.5"/>
<circle cx="548.59" cy="599.43" r="4.5" fill="#2563eb" stroke="#ffffff" stroke-width="1.5"/>
<circle cx="595.00" cy="627.42" r="4.5" fill="#2563eb" stroke="#ffffff" stroke-width="1.5"/>
<line x1="864" y1="190" x2="888" y2="190" stroke="#2563eb" stroke-width="2.5"/>
<circle cx="876" cy="190" r="4.5" fill="#2563eb" stroke="#ffffff" stroke-width="1.5"/>
<text x="898" y="195" font-size="13" font-family="Arial, sans-serif" fill="#0f172a">wavy_with_three_holes</text>
<path d="M 316.53 139.09 L 386.15 290.90 L 513.78 459.32 L 687.82 554.87 L 861.87 604.44 L 1035.91 629.58" fill="none" stroke="#d97706" stroke-width="2.5"/>
<circle cx="316.53" cy="139.09" r="4.5" fill="#d97706" stroke="#ffffff" stroke-width="1.5"/>
<circle cx="386.15" cy="290.90" r="4.5" fill="#d97706" stroke="#ffffff" stroke-width="1.5"/>
<circle cx="513.78" cy="459.32" r="4.5" fill="#d97706" stroke="#ffffff" stroke-width="1.5"/>
<circle cx="687.82" cy="554.87" r="4.5" fill="#d97706" stroke="#ffffff" stroke-width="1.5"/>
<circle cx="861.87" cy="604.44" r="4.5" fill="#d97706" stroke="#ffffff" stroke-width="1.5"/>
<circle cx="1035.91" cy="629.58" r="4.5" fill="#d97706" stroke="#ffffff" stroke-width="1.5"/>
<line x1="864" y1="218" x2="888" y2="218" stroke="#d97706" stroke-width="2.5"/>
<circle cx="876" cy="218" r="4.5" fill="#d97706" stroke="#ffffff" stroke-width="1.5"/>
<text x="898" y="223" font-size="13" font-family="Arial, sans-serif" fill="#0f172a">lake_with_two_islands</text>
</svg>